# xmcd CD database file
#
# Track frame offsets:
#	182
#	18117
#	34140
#	53092
#	70520
#	85177
#	101087
#	119125
#	132147
#	148487
#	166662
#	183582
#
# Disc length: 2727 seconds
#
# Revision: 2
# Processed by: cddbd v1.4b41PL1 Copyright (c) Steve Scherf et al.
# Submitted via: Feurio! 1.51.5ß - http://www.feurio.com
#
DISCID=a30aa50c
DTITLE=The Warren Brothers - Beautiful Day In The Cold Cruel World
DYEAR=1900
DGENRE=
TTITLE0=Guilty
TTITLE1=Surviving Emily
TTITLE2=Better Man
TTITLE3=Greyhound Bus
TTITLE4=The Enemy
TTITLE5=Loneliest Girl In The World
TTITLE6=Cold Cruel World
TTITLE7=She Wants To Rock
TTITLE8=I Tried
TTITLE9=The One I Can´t Live Without
TTITLE10=Just Another Sad Song
TTITLE11=Nowhere Fast
EXTD=
EXTT0=Radio Mix
EXTT1=
EXTT2=
EXTT3=
EXTT4=
EXTT5=
EXTT6=Radio Mix
EXTT7=
EXTT8=
EXTT9=
EXTT10=
EXTT11=
PLAYORDER=
